<svg xmlns="http://www.w3.org/2000/svg" viewBox="70 150 620.07 455.95"><defs><style>.cls-1{fill:#1B8354;}.cls-2{fill:#edc45c;}</style></defs><g id="Full_logo_vector"><path class="cls-1" d="M517,344.86a3,3,0,0,1,1.65,3.79c-6.54,19.12-13.23,38.22-26.32,54.22-10.71,13.09-24.95,19.34-41.68,19.51-8.54.09-17.08-1.07-25.62-1.19-13.23-.19-24.58,4.43-32.64,15.16-13.16,17.51-26.19,35.13-38.81,53-18.3,26-39.13,53-60.29,67.56A144.28,144.28,0,0,1,253,576.65c-8.16,2.51-9.95-.08-7.53-1.7s18.07-7.54,34-22.47,47.42-53,66.13-83.53c13.29-21.67,26.79-43.23,40.81-64.43,8-12.12,17.77-22.92,30.69-30.26,14.36-8.16,29.77-10,46-8.16a100.07,100.07,0,0,0,19.58.19c11.36-.92,19.19-7.42,24.63-17.15C510.27,343.78,512.05,342.71,517,344.86Z"/><path class="cls-1" d="M499.08,280.05c-6.06,5-11.52,9.52-17,14-2.47,2-4.52,1.73-6.94-.53-6-5.6-12.2-11-18.45-16.28-2-1.73-2.22-3.75-.81-5.37,6.88-7.92,13.82-15.8,21.15-23.29,1.91-1.85,4.82-.77,6.5.25,4.6,2.82,8.76,6.36,12.26,9,4.57-4.13,9.19-8.19,13.67-12.41,2.72-2.57,5.45-2.85,8.39-.63C522.29,248.12,527,251.2,531,255c9.14,8.52,9.14,12.13,1.3,20.29-5.07,5.58-11.18,10.24-17,15.13-1.86,1.56-3.94,1.14-5.8-.68C506,286.29,502.3,283,499.08,280.05Z"/><path class="cls-1" d="M451.47,486.36c-.16,3.17-5.25,8.48-8.44,11.45-4.84,4.51-10,8.7-15.07,12.95-2.19,1.83-4.21,1.67-6.47-.41-6.23-5.73-12.6-11.31-19.05-16.78-2.26-1.92-2.08-4.16-.65-5.82,6.9-8,14-15.75,21.26-23.4,2.09-2.21,4.31-1.09,5.62-.21A168.5,168.5,0,0,1,444.14,476C450.26,482.07,451.47,482.85,451.47,486.36Z"/><path class="cls-1" d="M346.33,421.18c-5.16,12.71-19.3,33.2-36.18,49.77-15.94,15.65-34.12,27.7-56.38,31.91-24.26,4.6-47.89,2.8-69.28-11-17.66-11.39-27.55-28.1-30.1-48.72-4.81-39,7.08-72.54,34.77-100.44,1.89-1.91,3.78-3.81,5.72-5.66s3.91-3.6,6.13-5.63c-1.38-.7-2.4-1.25-3.44-1.76-14.44-7.1-20.66-19.2-18.79-35.27,1.7-14.56,9.22-26,18.66-36.41,6.63-7.3,13.72-14.19,20.92-20.93,8.41-7.89,18.32-12.6,30.09-13.24,10.59-.57,20.32,5.34,22.22,14.43a20.35,20.35,0,0,1-6.25,20c-2.82,2.65-5.48,2.6-8.34.09-10.51-9.22-30.15-8.4-39.82,1.67-7.34,7.66-6.95,18.49,1,25.61,4.5,4.05,9.91,6,15.82,6.87,9.37,1.37,18.36,1.05,26.72-4.33,9.51-6.13,19.32-11.79,28.85-17.88,7.16-4.64,9-1.39,10.91,1.92,2,3.7-14.41,23.16-27.27,30.16-20.47,11.13-40.08,23.61-58,38.61-13.11,11-23.94,23.71-28.23,40.74-3.78,15-3.39,29.75,5.22,43.31,8.16,12.85,20.77,19.08,35.14,21.32,33,5.14,63.71-1.11,91.1-20.87,19.72-15.29,28.69-32,32.64-33s2.85,4.27,2.85,4.27A110.27,110.27,0,0,1,346.33,421.18Z"/><path class="cls-1" d="M288.61,270.22c7.16-4.64,9-1.39,10.91,1.92,2.65,4.91-14.41,23.16-27.27,30.16"/><path class="cls-2" d="M133.2,303a.81.81,0,0,0-.22-.59L84,259.38c-7-6.27-6.24-10.74-1.34-16.75l.14-.17,11.12-13c4.56-5.68,7.13-6,13.14-4.08l.31.11,17.89,6.48a.76.76,0,0,0,.67-.22l41.59-42.23a.77.77,0,0,0,.13-.9l-14.74-13.75-.21-.24c-2.24-2.6-4.93-5.35-3.4-9.81,1.46-4.25,5.8-5.13,9.21-5.61h.13l73.2-8.51a12.36,12.36,0,0,1,6,.67l59.34,22.21a12.17,12.17,0,0,1,3.66,2.15l21.11,17.92a27.72,27.72,0,0,0,10.84,5.66l27.73,7.33a37.14,37.14,0,0,0,9.21,1.22l65,.34a16.32,16.32,0,0,1,8.63,2.76l17.49,15.21c2.55,1.93,3.9,5.6,2.38,7.32-2.13,2.39-12.45-1.62-17.11-5.42l-8-6.37c-1.33-1.14-2.28-1.92-4.27-1.92l-64.19-.34a48.05,48.05,0,0,1-12.11-1.61l-27.73-7.32a39.5,39.5,0,0,1-15.38-8l-21.1-17.92a.79.79,0,0,0-.23-.14l-59.34-22.2a.79.79,0,0,0-.37,0l-.14,0-68.42,8,11.31,10.55.21.23a12.41,12.41,0,0,1-.56,16.72l-41.58,42.24A12.31,12.31,0,0,1,121.83,243l-.32-.1-17.88-6.48a.73.73,0,0,0-.73.28l-.14.16-11.08,13a.77.77,0,0,0,.1,1l49,43.06a12.34,12.34,0,0,1,3.89,10.76l0,.21-3,17a3.78,3.78,0,0,0,1,3.11l6,8.17c4.47,6.09,5.51,8.84,5.51,14,0,1.38-1.38,3.13-2.66,3.13-1.68,0-5.51-4.48-6.65-5.89l-10.08-11.12c-3.8-5-4.84-9.7-3.93-15.38Z"/><path class="cls-2" d="M316.87,582.32c-2.18-2.34-3.51-5.18-1.28-6.56,2.73-1.68,12.12,4.18,14.31,6.51l7.88,8.75c2.38,2.18,4.33,2.32,6.64.21l23-20.88a19,19,0,0,1,10.85-4.58L446.67,560a8.59,8.59,0,0,0,6.85-4.46l13.56-24.87c2.82-5.17,5-8.23,13.07-10.76l99.38-31.44a36.66,36.66,0,0,0,9.57-4.63s80.62-54.13,81.65-55.07c1.19-1.1,2.37-2.52.62-4.76-1.17-1.48-31.61-33.88-31.61-33.88a2.14,2.14,0,0,0-2.38-.29L601,411.85c-6.38,3.86-10.94,3.23-16-3.15l-63.16-85.76c-2-2.54-4.32-5.91-1.78-7.86s11.71,6.51,19.14,13.94c6,6,55,72.62,55,72.62a.77.77,0,0,0,.95.2l37.17-22.45c6-4,10.43-2.84,15.25,2.32l33.7,36.5c3.68,4.22,6.32,6.79,5.9,10.36s-3.8,5.33-8.05,8.23l-83.55,56.58A48.53,48.53,0,0,1,583,499.46L483.64,530.9a11.08,11.08,0,0,0-6.39,5.26L463.68,561a20.12,20.12,0,0,1-16,10.46l-68.39,5.82a7.48,7.48,0,0,0-4.2,1.75l-24.63,21c-5.28,4.33-7.75,6.37-10.41,6.37-3.22,0-5.2-2.95-7.6-5.41Z"/></g></svg>
